<svg id="svg" version="1.1" xmlns="http://www.w3.org/2000/svg" xmlns:xlink="http://www.w3.org/1999/xlink" width="400" height="84.37697659709045" viewBox="0, 0, 400,84.37697659709045"><g id="svgg"><path id="path0" d="M8.250 0.407 C 4.234 1.695,1.524 4.516,0.315 8.666 C 0.011 9.712,0.000 10.857,0.003 42.166 L 0.005 74.583 0.394 75.833 C 1.685 79.974,4.601 82.842,8.677 83.981 L 9.938 84.333 42.104 84.333 C 73.954 84.333,74.283 84.330,75.570 83.993 C 79.962 82.842,83.361 79.262,84.228 74.872 C 84.633 72.820,84.645 11.321,84.241 9.450 C 83.767 7.255,82.686 5.099,81.270 3.523 C 80.864 3.071,79.081 1.667,78.913 1.667 C 78.852 1.667,78.596 1.520,78.345 1.342 C 78.094 1.163,77.200 0.788,76.359 0.508 L 74.828 0.000 42.123 0.017 L 9.417 0.033 8.250 0.407 M56.673 19.000 C 57.620 20.604,58.475 22.067,58.574 22.250 C 58.674 22.433,59.312 23.510,59.993 24.643 L 61.231 26.702 60.118 28.893 C 59.506 30.098,58.398 32.246,57.657 33.667 C 56.916 35.087,55.746 37.337,55.057 38.667 L 53.805 41.083 57.111 37.696 L 60.417 34.308 62.083 37.071 C 63.000 38.590,63.847 40.002,63.966 40.208 C 64.085 40.415,64.310 40.785,64.466 41.032 C 64.622 41.278,65.674 43.003,66.803 44.865 C 68.750 48.076,71.030 51.828,74.786 58.000 C 75.707 59.512,76.427 60.806,76.387 60.875 C 76.346 60.944,73.736 61.000,70.586 61.000 L 64.859 61.000 62.607 57.292 C 61.369 55.252,60.069 53.111,59.719 52.534 C 59.370 51.957,58.821 51.055,58.500 50.529 C 58.179 50.004,57.827 49.426,57.718 49.245 C 57.608 49.065,56.708 47.583,55.718 45.953 C 54.727 44.323,53.819 42.805,53.699 42.578 C 53.404 42.020,53.256 42.059,52.885 42.792 C 52.179 44.189,49.082 50.162,48.500 51.250 C 48.156 51.892,47.254 53.617,46.495 55.083 C 43.046 61.746,43.612 61.000,42.005 61.000 C 40.470 61.000,40.707 61.219,38.756 58.000 C 37.950 56.671,35.679 52.921,33.708 49.667 C 29.641 42.953,29.149 42.166,29.014 42.167 C 28.960 42.168,28.460 43.049,27.903 44.126 C 27.345 45.202,26.230 47.358,25.424 48.917 C 24.618 50.475,23.641 52.350,23.253 53.083 C 21.845 55.744,19.591 60.096,19.347 60.625 L 19.097 61.167 13.215 61.167 C 9.980 61.167,7.333 61.130,7.333 61.085 C 7.333 61.041,8.185 59.335,9.227 57.294 C 10.268 55.253,12.378 51.108,13.915 48.083 C 15.451 45.058,17.852 40.333,19.250 37.583 C 20.648 34.833,23.085 30.033,24.666 26.917 C 28.166 20.018,27.712 20.536,28.750 22.258 C 30.000 24.331,32.794 28.922,33.000 29.242 C 34.506 31.582,34.498 31.543,33.776 32.882 C 31.225 37.613,29.252 41.649,29.928 40.750 C 30.876 39.491,36.086 34.517,36.259 34.706 C 36.411 34.874,38.765 38.710,40.713 41.965 C 41.134 42.670,39.914 44.869,48.416 28.083 C 50.599 23.775,52.831 19.350,53.378 18.250 C 54.464 16.063,54.661 15.753,54.836 15.951 C 54.900 16.024,55.727 17.396,56.673 19.000 M346.917 20.811 C 341.406 21.902,338.590 24.676,336.997 30.583 C 335.704 35.377,335.591 45.319,336.767 50.833 C 337.155 52.654,338.027 55.164,338.450 55.680 C 338.569 55.825,338.667 55.996,338.667 56.062 C 338.667 56.212,339.272 57.078,339.906 57.833 C 340.483 58.521,341.885 59.667,342.149 59.667 C 342.250 59.667,342.333 59.728,342.333 59.803 C 342.333 60.009,343.923 60.623,345.417 60.993 C 349.646 62.041,359.543 61.488,363.458 59.984 C 363.831 59.841,363.833 59.822,363.833 56.188 C 363.833 51.934,364.077 52.307,361.500 52.617 C 358.769 52.946,351.175 52.989,350.083 52.682 C 346.710 51.733,345.779 49.603,345.551 42.317 C 345.465 39.554,345.587 37.198,345.937 34.833 C 346.342 32.102,347.508 30.314,349.333 29.625 C 350.494 29.187,357.055 29.147,360.195 29.559 C 361.234 29.695,362.479 29.853,362.962 29.909 L 363.840 30.012 363.795 26.303 L 363.750 22.594 363.000 22.309 C 361.641 21.792,359.514 21.301,356.583 20.825 C 354.455 20.480,348.631 20.471,346.917 20.811 M369.500 25.167 L 369.500 29.500 374.750 29.500 L 380.000 29.500 380.000 45.419 L 380.000 61.339 384.708 61.294 L 389.417 61.250 389.459 45.375 L 389.502 29.500 394.751 29.500 L 400.000 29.500 400.000 25.167 L 400.000 20.833 384.750 20.833 L 369.500 20.833 369.500 25.167 M104.771 22.739 C 104.622 23.696,104.500 24.727,104.501 25.031 C 104.501 25.335,104.394 26.371,104.262 27.333 C 104.130 28.296,103.904 30.096,103.761 31.333 C 103.617 32.571,103.383 34.521,103.240 35.667 C 103.097 36.813,102.946 38.125,102.905 38.583 C 102.863 39.042,102.721 40.279,102.589 41.333 C 102.457 42.387,102.228 44.300,102.082 45.583 C 101.935 46.867,101.710 48.817,101.583 49.917 C 101.455 51.017,101.229 52.967,101.080 54.250 C 100.932 55.533,100.702 57.408,100.570 58.417 C 100.439 59.425,100.332 60.494,100.332 60.792 L 100.333 61.333 104.899 61.333 C 109.926 61.333,109.667 61.391,109.666 60.278 C 109.666 59.988,109.776 58.887,109.911 57.833 C 110.251 55.175,110.642 51.927,110.754 50.833 C 110.805 50.329,110.952 49.092,111.079 48.083 C 111.206 47.075,111.425 45.237,111.566 44.000 C 111.707 42.762,111.911 41.006,112.020 40.096 L 112.217 38.442 112.594 39.929 C 112.801 40.747,113.169 42.167,113.413 43.083 C 113.656 44.000,113.924 45.074,114.008 45.469 C 114.092 45.865,114.201 46.254,114.250 46.333 C 114.299 46.413,114.405 46.801,114.485 47.197 C 114.565 47.593,114.910 48.967,115.252 50.250 C 115.593 51.533,115.930 52.846,115.999 53.167 C 116.069 53.487,116.443 54.950,116.831 56.417 C 117.219 57.883,117.663 59.571,117.817 60.167 L 118.098 61.250 122.573 61.250 L 127.048 61.250 127.249 60.500 C 127.507 59.534,128.010 57.600,128.657 55.083 C 128.940 53.983,129.283 52.652,129.419 52.125 C 129.555 51.598,129.774 50.735,129.904 50.208 C 130.035 49.681,130.233 48.913,130.345 48.500 C 130.458 48.087,130.604 47.487,130.671 47.167 C 130.738 46.846,131.036 45.683,131.332 44.583 C 131.628 43.483,132.114 41.618,132.412 40.437 C 132.999 38.109,133.078 38.100,133.258 40.348 C 133.313 41.027,133.461 42.333,133.587 43.250 C 133.714 44.167,133.858 45.367,133.909 45.917 C 134.017 47.091,134.251 49.002,134.610 51.667 C 134.753 52.721,134.896 53.958,134.928 54.417 C 134.960 54.875,135.106 56.188,135.253 57.333 C 135.399 58.479,135.571 59.829,135.634 60.333 L 135.750 61.250 140.367 61.294 L 144.985 61.339 144.904 60.461 C 144.860 59.978,144.710 58.646,144.572 57.500 C 144.315 55.361,144.057 53.171,143.582 49.083 C 143.433 47.800,143.207 45.925,143.080 44.917 C 142.954 43.908,142.801 42.521,142.741 41.833 C 142.681 41.146,142.608 40.543,142.578 40.494 C 142.549 40.445,142.442 39.620,142.341 38.661 C 142.240 37.702,142.051 36.092,141.920 35.083 C 141.789 34.075,141.564 32.237,141.420 31.000 C 141.275 29.762,141.050 27.850,140.920 26.750 C 140.789 25.650,140.597 24.007,140.493 23.100 C 140.389 22.192,140.265 21.348,140.217 21.225 C 140.148 21.044,139.258 21.000,135.682 21.000 L 131.233 21.000 130.684 22.792 C 130.382 23.777,130.028 24.958,129.896 25.417 C 129.765 25.875,129.557 26.587,129.435 27.000 C 129.314 27.412,129.093 28.162,128.946 28.667 C 128.799 29.171,128.416 30.446,128.095 31.500 C 127.774 32.554,127.365 33.942,127.187 34.583 C 127.009 35.225,126.589 36.650,126.254 37.750 C 125.919 38.850,125.580 40.012,125.500 40.333 C 125.359 40.897,124.902 42.445,124.417 44.000 C 123.877 45.729,123.021 48.670,122.840 49.417 C 122.724 49.893,122.705 49.869,122.432 48.917 C 122.274 48.367,122.082 47.729,122.005 47.500 C 121.745 46.722,120.621 42.957,119.667 39.667 C 118.991 37.335,118.659 36.219,118.402 35.417 C 118.285 35.050,118.064 34.300,117.912 33.750 C 117.759 33.200,117.493 32.300,117.322 31.750 C 117.150 31.200,116.779 29.962,116.497 29.000 C 116.215 28.037,115.881 26.912,115.756 26.500 C 115.630 26.087,115.402 25.300,115.249 24.750 C 115.095 24.200,114.874 23.450,114.756 23.083 C 114.638 22.717,114.454 22.098,114.348 21.708 L 114.153 21.000 109.598 21.000 L 105.042 21.000 104.771 22.739 M155.250 21.353 C 152.175 22.338,150.524 23.911,149.460 26.871 L 149.083 27.917 149.086 41.500 C 149.088 56.516,149.010 55.309,150.115 57.417 C 151.076 59.250,153.513 60.879,155.848 61.250 C 159.059 61.761,169.187 61.493,175.542 60.730 L 176.333 60.635 176.333 56.572 L 176.333 52.509 168.262 52.463 C 159.205 52.411,159.701 52.481,158.917 51.149 C 158.455 50.365,158.299 45.500,158.737 45.500 C 158.883 45.500,161.346 45.387,164.210 45.248 C 167.074 45.109,170.379 44.978,171.554 44.956 L 173.692 44.917 173.673 41.175 C 173.663 39.117,173.625 37.403,173.588 37.366 C 173.551 37.329,172.560 37.268,171.386 37.231 C 165.156 37.032,159.834 36.815,159.194 36.734 L 158.471 36.642 158.529 34.113 C 158.634 29.596,158.086 29.833,168.413 29.833 L 176.339 29.833 176.295 25.708 L 176.250 21.583 175.250 21.541 C 174.700 21.518,172.787 21.387,171.000 21.249 C 165.997 20.864,156.584 20.926,155.250 21.353 M181.708 41.125 L 181.750 61.250 186.458 61.294 L 191.167 61.339 191.167 49.409 C 191.167 37.637,191.197 36.955,191.677 38.058 C 191.825 38.400,192.098 38.859,192.379 39.241 C 192.451 39.338,193.004 40.204,193.610 41.167 C 194.215 42.129,194.976 43.329,195.300 43.833 C 195.624 44.337,196.129 45.125,196.422 45.583 C 196.715 46.042,197.366 47.054,197.867 47.833 C 198.369 48.612,198.878 49.438,198.999 49.667 C 199.120 49.896,199.757 50.908,200.415 51.917 C 201.453 53.510,202.166 54.633,203.167 56.254 C 203.304 56.477,203.904 57.410,204.500 58.329 C 205.096 59.247,205.658 60.131,205.750 60.292 C 206.389 61.418,206.056 61.344,210.268 61.295 L 214.083 61.250 214.126 41.125 L 214.168 21.000 209.334 21.000 L 204.500 21.000 204.500 32.945 L 204.500 44.890 204.021 44.154 C 203.758 43.748,203.072 42.667,202.497 41.750 C 201.921 40.833,201.210 39.708,200.916 39.250 C 200.394 38.437,199.524 37.061,197.284 33.500 C 196.679 32.537,196.104 31.659,196.008 31.549 C 195.912 31.438,195.833 31.305,195.833 31.253 C 195.833 31.201,195.472 30.614,195.031 29.948 C 194.590 29.282,194.175 28.627,194.108 28.493 C 193.948 28.172,193.706 27.785,192.913 26.583 C 192.550 26.033,192.178 25.453,192.085 25.294 C 191.992 25.135,191.354 24.106,190.667 23.009 L 189.417 21.013 185.541 21.006 L 181.665 21.000 181.708 41.125 M220.041 41.125 L 220.083 61.250 229.917 61.250 C 238.774 61.250,239.881 61.220,241.072 60.951 C 248.567 59.254,251.844 53.259,251.884 41.167 C 251.923 29.359,248.739 23.119,241.765 21.337 C 240.513 21.017,239.936 21.000,230.223 21.000 L 219.999 21.000 220.041 41.125 M257.167 41.167 L 257.167 61.333 261.917 61.333 L 266.667 61.333 266.667 47.597 L 266.667 33.861 264.042 32.579 C 262.598 31.874,260.629 30.912,259.667 30.440 L 257.917 29.583 262.292 29.539 L 266.667 29.494 266.667 25.247 L 266.667 21.000 261.917 21.000 L 257.167 21.000 257.167 41.167 M270.500 25.250 L 270.500 29.500 275.749 29.500 L 280.998 29.500 281.041 45.375 L 281.083 61.250 285.833 61.250 L 290.583 61.250 290.626 45.375 L 290.668 29.500 295.918 29.500 L 301.167 29.500 301.167 25.250 L 301.167 21.000 285.833 21.000 L 270.500 21.000 270.500 25.250 M310.699 21.342 C 307.893 22.153,306.014 23.928,304.885 26.833 C 304.452 27.948,304.338 53.742,304.759 55.374 C 305.625 58.732,308.154 60.822,312.000 61.357 C 314.188 61.662,324.570 61.438,328.255 61.008 C 329.077 60.912,330.162 60.801,330.667 60.761 C 331.171 60.722,331.640 60.685,331.708 60.678 C 331.777 60.672,331.833 58.829,331.833 56.583 L 331.833 52.500 323.917 52.479 C 319.563 52.468,315.944 52.446,315.875 52.431 C 315.354 52.315,314.660 51.744,314.397 51.216 C 313.924 50.262,313.826 45.501,314.280 45.497 C 314.447 45.495,316.758 45.385,319.417 45.251 C 322.075 45.117,325.356 45.006,326.708 45.004 L 329.167 45.000 329.167 41.190 L 329.167 37.380 328.292 37.275 C 327.810 37.217,326.517 37.169,325.417 37.169 C 323.135 37.169,315.363 36.856,314.530 36.730 L 313.977 36.647 314.030 34.115 C 314.091 31.216,314.222 30.798,315.250 30.216 L 315.917 29.839 323.878 29.836 L 331.839 29.833 331.795 25.708 L 331.750 21.583 330.750 21.541 C 330.200 21.518,328.287 21.387,326.500 21.249 C 321.637 20.875,312.121 20.931,310.699 21.342 M238.356 29.770 C 241.276 30.589,242.636 35.011,242.270 42.500 C 241.836 51.374,240.871 52.528,233.792 52.637 L 229.667 52.700 229.667 41.100 L 229.667 29.500 233.531 29.500 C 236.584 29.500,237.597 29.557,238.356 29.770 " stroke="none" fill="#149bdb" fill-rule="evenodd"></path><path id="path1" d="M25.263 26.042 C 22.610 31.265,19.515 37.351,15.833 44.583 C 14.574 47.058,12.177 51.766,10.508 55.044 L 7.474 61.004 13.247 60.961 L 19.019 60.917 20.935 57.250 C 21.988 55.233,23.644 52.046,24.614 50.167 C 25.585 48.288,26.546 46.450,26.751 46.083 C 26.955 45.717,27.818 44.067,28.667 42.417 C 29.517 40.767,31.115 37.694,32.217 35.589 C 33.320 33.484,34.221 31.684,34.219 31.589 C 34.217 31.494,33.385 30.067,32.372 28.417 C 31.358 26.767,29.941 24.461,29.222 23.292 C 28.504 22.124,27.877 21.168,27.828 21.167 C 27.779 21.167,26.625 23.360,25.263 26.042 M56.853 38.151 L 53.338 41.803 55.448 45.276 C 59.014 51.148,64.020 59.379,64.479 60.125 L 64.914 60.833 70.637 60.833 L 76.361 60.833 76.032 60.292 C 75.851 59.994,75.085 58.737,74.330 57.500 C 73.575 56.262,72.003 53.675,70.837 51.750 C 69.670 49.825,66.837 45.156,64.542 41.374 L 60.367 34.498 56.853 38.151 " stroke="none" fill="#fbfbfb" fill-rule="evenodd"></path><path id="path2" d="M54.589 16.158 C 54.520 16.268,52.997 19.259,51.203 22.804 C 42.605 39.796,41.239 42.459,41.098 42.519 C 41.014 42.554,39.903 40.858,38.629 38.750 C 37.354 36.642,36.254 34.857,36.182 34.785 C 36.037 34.637,29.280 41.378,29.197 41.754 C 29.167 41.886,29.572 42.689,30.096 43.539 C 30.620 44.388,32.001 46.658,33.166 48.583 C 34.330 50.508,36.356 53.846,37.669 56.000 C 38.981 58.154,40.174 60.122,40.319 60.374 C 40.574 60.816,40.631 60.831,42.000 60.832 L 43.417 60.833 44.457 58.791 C 45.029 57.669,46.103 55.587,46.844 54.167 C 47.585 52.746,48.833 50.346,49.618 48.833 C 50.403 47.321,51.324 45.558,51.666 44.917 C 52.007 44.275,52.907 42.550,53.666 41.083 C 54.425 39.617,55.401 37.742,55.834 36.917 C 56.268 36.092,57.280 34.142,58.083 32.583 C 58.886 31.025,59.902 29.075,60.339 28.250 L 61.135 26.750 58.056 21.583 C 56.363 18.742,54.918 16.313,54.845 16.187 C 54.745 16.013,54.683 16.006,54.589 16.158 " stroke="none" fill="#04446c" fill-rule="evenodd"></path><path id="path3" d="M59.240 35.542 L 58.750 36.083 59.292 35.594 C 59.797 35.138,59.910 35.000,59.781 35.000 C 59.752 35.000,59.509 35.244,59.240 35.542 M54.158 40.792 L 53.583 41.417 54.208 40.842 C 54.552 40.526,54.833 40.245,54.833 40.217 C 54.833 40.090,54.692 40.210,54.158 40.792 " stroke="none" fill="#5cb7e7" fill-rule="evenodd"></path><path id="path4" d="M55.745 39.208 L 54.750 40.250 55.792 39.255 C 56.759 38.331,56.910 38.167,56.786 38.167 C 56.761 38.167,56.292 38.635,55.745 39.208 M13.250 61.000 L 7.417 61.090 13.198 61.128 C 16.915 61.153,19.017 61.107,19.083 61.000 C 19.140 60.908,19.163 60.851,19.135 60.872 C 19.107 60.893,16.458 60.951,13.250 61.000 " stroke="none" fill="#7cc4ec" fill-rule="evenodd"></path><path id="path5" d="M58.240 36.542 L 57.750 37.083 58.292 36.594 C 58.797 36.138,58.910 36.000,58.781 36.000 C 58.752 36.000,58.509 36.244,58.240 36.542 M352.708 52.957 C 353.510 52.988,354.823 52.988,355.625 52.957 C 356.427 52.927,355.771 52.902,354.167 52.902 C 352.563 52.902,351.906 52.927,352.708 52.957 M70.583 60.833 L 64.750 60.923 70.532 60.962 C 74.249 60.986,76.350 60.940,76.417 60.833 C 76.473 60.742,76.496 60.684,76.468 60.705 C 76.440 60.726,73.792 60.784,70.583 60.833 " stroke="none" fill="#39a6e4" fill-rule="evenodd"></path><path id="path6" d="M33.329 37.292 L 32.250 38.417 33.375 37.338 C 33.994 36.745,34.500 36.239,34.500 36.213 C 34.500 36.090,34.330 36.247,33.329 37.292 " stroke="none" fill="#0c6ca4" fill-rule="evenodd"></path><path id="path7" d="" stroke="none" fill="#0c7bb3" fill-rule="evenodd"></path><path id="path8" d="M173.738 41.083 C 173.738 43.100,173.762 43.902,173.791 42.866 C 173.820 41.829,173.820 40.179,173.791 39.199 C 173.762 38.219,173.738 39.067,173.738 41.083 M30.575 40.042 L 29.917 40.750 30.625 40.091 C 31.015 39.729,31.333 39.410,31.333 39.383 C 31.333 39.257,31.188 39.383,30.575 40.042 M251.872 43.167 C 251.872 43.487,251.906 43.619,251.948 43.458 C 251.990 43.298,251.990 43.035,251.948 42.875 C 251.906 42.715,251.872 42.846,251.872 43.167 M41.292 60.955 C 41.681 60.990,42.319 60.990,42.708 60.955 C 43.098 60.920,42.779 60.892,42.000 60.892 C 41.221 60.892,40.902 60.920,41.292 60.955 " stroke="none" fill="#147cbc" fill-rule="evenodd"></path></g></svg>